<svg width="28" height="16" viewBox="0 0 28 16" fill="none" xmlns="http://www.w3.org/2000/svg">
<path d="M1.00114 6.98523C0.448851 6.9846 0.000627899 7.43181 6.55651e-07 7.98409C-0.000626588 8.53638 0.44658 8.9846 0.998864 8.98523L1 7.98523L1.00114 6.98523ZM27.7063 8.72267C28.0973 8.33259 28.098 7.69942 27.7079 7.30846L21.3512 0.937271C20.9611 0.546303 20.3279 0.545584 19.937 0.935664C19.546 1.32574 19.5453 1.95891 19.9353 2.34988L25.5858 8.01315L19.9225 13.6636C19.5315 14.0537 19.5308 14.6868 19.9209 15.0778C20.311 15.4688 20.9441 15.4695 21.3351 15.0794L27.7063 8.72267ZM1 7.98523L0.998864 8.98523L26.9988 9.01476L27 8.01476L27.0011 7.01476L1.00114 6.98523L1 7.98523Z" fill="white"/>
</svg>
