<svg width="12" height="9" viewBox="0 0 12 9" fill="none" xmlns="http://www.w3.org/2000/svg">
<path d="M7.23023 8.39097C7.22996 8.33253 7.24136 8.27462 7.26376 8.22065C7.28617 8.16667 7.31913 8.11771 7.36071 8.07665L10.6047 4.83261L7.36071 1.58857C7.28214 1.50425 7.23936 1.39273 7.2414 1.27749C7.24343 1.16226 7.29011 1.05232 7.37161 0.970823C7.4531 0.889329 7.56305 0.842648 7.67828 0.840615C7.79351 0.838582 7.90503 0.881355 7.98935 0.959924L11.5477 4.51829C11.631 4.60169 11.6778 4.71474 11.6778 4.83261C11.6778 4.95048 11.631 5.06353 11.5477 5.14693L7.98935 8.70529C7.90595 8.78859 7.7929 8.83537 7.67503 8.83537C7.55716 8.83537 7.44411 8.78859 7.36071 8.70529C7.31913 8.66423 7.28617 8.61527 7.26376 8.56129C7.24136 8.50732 7.22996 8.44941 7.23023 8.39097Z" fill="#D2555A"/>
<path d="M0.695079 4.84537C0.696915 4.72574 0.753494 4.61144 0.852764 4.52684C0.952034 4.44224 1.08614 4.39402 1.22652 4.39246L11.1468 4.39246C11.2877 4.39246 11.4229 4.44017 11.5226 4.52511C11.6222 4.61005 11.6782 4.72525 11.6782 4.84537C11.6782 4.96549 11.6222 5.08069 11.5226 5.16563C11.4229 5.25057 11.2877 5.29828 11.1468 5.29828L1.22652 5.29828C1.08614 5.29672 0.952034 5.2485 0.852764 5.1639C0.753494 5.0793 0.696915 4.965 0.695079 4.84537Z" fill="#D2555A"/>
</svg>
