<svg width="18" height="20" viewBox="0 0 18 20" fill="none" xmlns="http://www.w3.org/2000/svg">
<path d="M15.0751 7.939V7.3045C15.0751 3.8224 12.3535 1 9.00008 1C5.64668 1 2.92508 3.8224 2.92508 7.3045V7.939C2.92616 8.6964 2.71002 9.43822 2.30228 10.0765L1.30508 11.629C0.39518 13.0465 1.08998 14.9734 2.67308 15.4216C6.80974 16.5931 11.1904 16.5931 15.3271 15.4216C16.9102 14.9734 17.605 13.0465 16.6951 11.6299L15.6979 10.0774C15.2898 9.43922 15.0734 8.69739 15.0742 7.9399L15.0751 7.939Z" stroke="white" stroke-width="1.5"/>
<path d="M4.95007 16.3C5.53957 17.8732 7.12987 19 9.00007 19C10.8703 19 12.4606 17.8732 13.0501 16.3" stroke="white" stroke-width="1.5" stroke-linecap="round"/>
</svg>
