<svg width="22" height="19" viewBox="0 0 22 19" fill="none" xmlns="http://www.w3.org/2000/svg">
<path d="M14.9929 7.23146L14.645 8.32555H8L8.34787 7.23146H14.9929ZM11.7769 14L8.20588 10.3345L8.19878 9.41346H9.89554C10.3357 9.41346 10.6978 9.34547 10.9817 9.20948C11.2705 9.06937 11.4858 8.88187 11.6278 8.64698C11.7698 8.40797 11.8408 8.14217 11.8408 7.84959C11.8408 7.53228 11.7745 7.25206 11.642 7.00893C11.5095 6.7658 11.2989 6.57624 11.0101 6.44025C10.7214 6.30426 10.3404 6.23626 9.86714 6.23626H8.0071L8.39047 5H9.86714C10.7049 5 11.4006 5.1092 11.9544 5.32761C12.5081 5.54602 12.9222 5.86332 13.1968 6.27953C13.476 6.69574 13.6156 7.19849 13.6156 7.78777C13.6156 8.30288 13.5139 8.75824 13.3103 9.15385C13.1068 9.54533 12.7779 9.86264 12.3235 10.1058C11.8692 10.3448 11.2657 10.4931 10.5132 10.5508L13.7789 13.9196V14H11.7769ZM15 5L14.645 6.09409H9.214L9.56187 5H15Z" fill="#A4A4A4"/>
<path d="M20.5526 2.79523C20.5526 2.52141 20.4629 2.25818 20.3025 2.06369C20.1419 1.8691 19.9233 1.75926 19.6952 1.75926H2.30476C2.07667 1.75926 1.85815 1.8691 1.69755 2.06369C1.53707 2.25818 1.44738 2.5214 1.44737 2.79523V16.2048C1.44738 16.4786 1.53707 16.7418 1.69755 16.9363C1.85815 17.1309 2.07667 17.2407 2.30476 17.2407H19.6952C19.9233 17.2407 20.1419 17.1309 20.3025 16.9363C20.4629 16.7418 20.5526 16.4786 20.5526 16.2048V2.79523ZM22 16.2048C22 16.947 21.7565 17.6582 21.3241 18.1822C20.8917 18.7061 20.3057 19 19.6952 19H2.30476C1.69428 19 1.10829 18.7061 0.67591 18.1822C0.243461 17.6582 8.21467e-06 16.947 0 16.2048V2.79523C8.36146e-06 2.053 0.243461 1.34177 0.67591 0.817781C1.10829 0.293894 1.69428 0 2.30476 0H19.6952C20.3057 0 20.8917 0.293894 21.3241 0.817781C21.7565 1.34177 22 2.053 22 2.79523V16.2048Z" fill="#A4A4A4"/>
</svg>
