<svg width="18" height="19" viewBox="0 0 18 19" fill="none" xmlns="http://www.w3.org/2000/svg">
<path d="M8.39086 17.8302C8.56596 17.9404 8.77994 18 9 18C9.22006 18 9.43404 17.9404 9.60914 17.8302C11.4777 16.6714 17 12.8872 17 8.57124V3.91531C17.0012 3.79521 16.9484 3.67902 16.852 3.58918C16.7555 3.49935 16.6221 3.44226 16.4777 3.42894C14.1893 3.23526 11.9961 2.57095 10.0983 1.49669L9.40114 1.10287C9.28308 1.03587 9.14322 1 9 1C8.85678 1 8.71692 1.03587 8.59886 1.10287L7.90172 1.49669C6.00391 2.57095 3.81069 3.23526 1.5223 3.42894C1.37786 3.44226 1.24452 3.49935 1.14805 3.58918C1.05158 3.67902 0.998841 3.79521 1.00002 3.91531V8.57124C1.00002 12.8872 6.52229 16.6714 8.39086 17.8283" stroke="#A4A4A4" stroke-width="1.5" stroke-linecap="round" stroke-linejoin="round"/>
<path d="M12.4004 8.32422V9.5957H6.55273V8.32422H12.4004ZM10.1621 5.93359V12.1445H8.79688V5.93359H10.1621Z" fill="#A4A4A4"/>
</svg>
