<svg width="19" height="19" viewBox="0 0 19 19" fill="none" xmlns="http://www.w3.org/2000/svg">
<path fill-rule="evenodd" clip-rule="evenodd" d="M18.154 5.15625C17.9714 5.22336 17.7741 5.23598 17.5848 5.19263C17.3956 5.14929 17.2223 5.05177 17.085 4.91142L16.3314 4.13773L10.6014 10.0096C10.5063 10.1071 10.3934 10.1845 10.2692 10.2372C10.1449 10.29 10.0117 10.3172 9.87716 10.3172C9.74264 10.3172 9.60944 10.29 9.48517 10.2372C9.3609 10.1845 9.24799 10.1071 9.1529 10.0096L6.96714 7.76971L1.7601 13.1057C1.6656 13.2059 1.55257 13.2858 1.42763 13.3407C1.30268 13.3957 1.1683 13.4245 1.03235 13.4257C0.896388 13.4268 0.76157 13.4002 0.635757 13.3474C0.509944 13.2946 0.395656 13.2166 0.299562 13.118C0.203468 13.0195 0.127492 12.9023 0.0760667 12.7733C0.0246418 12.6443 -0.00120215 12.5061 4.29395e-05 12.3668C0.00128803 12.2275 0.0295972 12.0898 0.0833186 11.9618C0.13704 11.8338 0.215098 11.7181 0.312938 11.6213L6.24083 5.5424C6.33592 5.44489 6.44883 5.36754 6.5731 5.31476C6.69737 5.26199 6.83058 5.23482 6.9651 5.23482C7.09962 5.23482 7.23282 5.26199 7.35709 5.31476C7.48136 5.36754 7.59427 5.44489 7.68936 5.5424L9.87648 7.7837L14.8828 2.65333L14.1292 1.88104C13.992 1.74058 13.8965 1.56307 13.8539 1.36916C13.8113 1.17526 13.8233 0.972934 13.8885 0.785747C13.9537 0.59856 14.0695 0.434208 14.2223 0.311821C14.3752 0.189435 14.5588 0.114048 14.7518 0.0944369C15.9982 -0.031479 16.715 -0.031479 17.915 0.0944369C18.1492 0.119252 18.3679 0.226021 18.5343 0.396759C18.7007 0.567497 18.8045 0.791773 18.8284 1.03181C18.9526 2.26019 18.9513 2.9961 18.8284 4.27204C18.8092 4.46974 18.7356 4.65778 18.6162 4.81431C18.4968 4.97084 18.3365 5.08942 18.154 5.15625ZM15.9382 7.26604C16.0929 7.11232 16.2909 7.01253 16.5042 6.98088C16.7175 6.94923 16.935 6.98733 17.1259 7.08976L18.453 7.80328C18.6247 7.89589 18.7671 8.03659 18.8638 8.20898C18.9605 8.38138 19.0074 8.57838 18.9991 8.77703L18.6222 17.9941C18.6113 18.2648 18.4986 18.5207 18.3078 18.7082C18.1169 18.8957 17.8627 19.0002 17.5983 19H14.906C14.8155 19 14.7287 18.9631 14.6647 18.8976C14.6007 18.832 14.5647 18.743 14.5647 18.6502V8.77843C14.5646 8.73147 14.5738 8.68496 14.5916 8.6417C14.6094 8.59843 14.6356 8.55929 14.6685 8.5266L15.9382 7.26604ZM12.8582 18.6502C12.8582 18.743 12.8222 18.832 12.7582 18.8976C12.6942 18.9631 12.6074 19 12.5169 19H7.3972C7.30667 19 7.21986 18.9631 7.15585 18.8976C7.09184 18.832 7.05588 18.743 7.05588 18.6502V10.5161C7.05588 10.4881 7.07636 10.4657 7.10367 10.4685C7.3262 10.4797 7.54464 10.5664 7.72485 10.7273L9.97068 12.7476C10.0351 12.8057 10.1185 12.8368 10.2042 12.8347C10.29 12.8326 10.3718 12.7975 10.4335 12.7364L12.2793 10.9008C12.3275 10.8529 12.3884 10.8207 12.4544 10.8081C12.5203 10.7955 12.5885 10.8031 12.6502 10.83C12.712 10.8569 12.7647 10.9018 12.8017 10.9592C12.8387 11.0166 12.8583 11.0839 12.8582 11.1526V18.6502ZM4.76364 12.4062L0.517724 16.8496C0.329809 17.0456 0.224418 17.3094 0.224197 17.5841V17.9507C0.224197 18.5299 0.682919 19 1.24813 19H5.00802C5.09854 19 5.18535 18.9631 5.24936 18.8976C5.31337 18.832 5.34933 18.743 5.34933 18.6502V12.651C5.34946 12.5814 5.32931 12.5134 5.29148 12.4556C5.25364 12.3977 5.19983 12.3528 5.13693 12.3265C5.07404 12.3002 5.00491 12.2938 4.93841 12.308C4.87191 12.3222 4.81106 12.3564 4.76364 12.4062Z" fill="#A4A4A4"/>
</svg>
